<?xml version="1.0" encoding="utf-8"?>
<!-- Generator: Adobe Illustrator 16.0.0, SVG Export Plug-In . SVG Version: 6.00 Build 0)  -->
<!DOCTYPE svg PUBLIC "-//W3C//DTD SVG 1.1//EN" "http://www.w3.org/Graphics/SVG/1.1/DTD/svg11.dtd">
<svg version="1.1" id="Layer_1" xmlns="http://www.w3.org/2000/svg" xmlns:xlink="http://www.w3.org/1999/xlink" x="0px" y="0px"
	 width="500px" height="500px" viewBox="0 0 500 500" enable-background="new 0 0 500 500" xml:space="preserve">
<g display="none">
	<path display="inline" fill-rule="evenodd" clip-rule="evenodd" fill="#006cb5" d="M146.598,141.006c0,8.227,0,15.881,0,24.209
		c-1.537,0-3.188,0-4.838,0c-32.395,0-64.792-0.003-97.188,0.001c-10.31,0.003-14.936,4.521-14.939,14.831
		c-0.023,68.392-0.02,136.785,0.006,205.174c0.003,9.729,4.647,14.252,14.489,14.254c68.235,0.008,136.47,0.002,204.706-0.003
		c10.714-0.002,15.127-4.375,15.129-15.041c0.01-61.507,0.006-123.011,0.008-184.518c0-1.867,0-3.733,0-6.155
		c1.854-0.083,3.5-0.218,5.146-0.219c17.999-0.015,35.995,0.021,53.992-0.036c3.276-0.01,6.582-0.152,9.821-0.61
		c18.202-2.579,30.076-16.37,30.224-34.992c0.045-5.46,0.007-10.921,0.007-17.125c1.983,0,3.632,0,5.282,0
		c36.464,0,72.929-0.017,109.393,0.01c13.186,0.009,21.104,7.706,21.115,20.968c0.063,92.022,0.066,184.047,0.001,276.069
		c-0.009,13.414-8.084,21.169-21.488,21.169c-149.929,0.008-299.857,0.008-449.786,0.002c-13.454-0.002-21.367-7.791-21.371-21.202
		c-0.025-92.021-0.024-184.046,0-276.07c0.004-13.2,7.806-20.927,21.061-20.936c38.031-0.027,76.061-0.012,114.09,0
		C142.986,140.788,144.516,140.914,146.598,141.006z M379.385,378.107c22.195,0,44.392,0.001,66.588-0.003
		c1.562,0,3.137,0.064,4.685-0.104c4.732-0.512,8.202-4.077,8.459-8.56c0.235-4.176-2.729-8.148-7.176-9.188
		c-1.944-0.456-4.022-0.47-6.039-0.472c-44.547-0.023-89.097-0.018-133.643,0c-1.711,0.001-3.464-0.005-5.123,0.346
		c-4.412,0.936-7.445,4.812-7.331,9.077c0.107,4.029,3.194,7.709,7.397,8.553c1.667,0.336,3.416,0.337,5.128,0.341
		C334.68,378.116,357.033,378.111,379.385,378.107z M379.524,227.035c-22.194,0-44.39,0-66.584,0.004
		c-1.563,0-3.139-0.061-4.688,0.096c-4.708,0.482-8.132,4.029-8.407,8.591c-0.264,4.338,3.043,8.51,7.605,9.339
		c1.673,0.303,3.427,0.219,5.143,0.219c44.547,0.01,89.094,0.01,133.639,0.005c1.564,0,3.143,0.067,4.684-0.117
		c4.619-0.553,8.101-4.349,8.211-8.81c0.105-4.351-3.318-8.421-7.87-9.133c-1.685-0.264-3.429-0.184-5.146-0.185
		C423.914,227.035,401.72,227.04,379.524,227.035z M379.784,289.46c23.287,0,46.578,0.038,69.868-0.028
		c5.507-0.016,9.437-3.893,9.471-8.924c0.032-4.713-3.817-8.703-8.92-9.148c-1.551-0.135-3.123-0.069-4.687-0.07
		c-32.512-0.004-65.022-0.004-97.535-0.002c-12.66,0-25.32,0.02-37.981-0.003c-4.738-0.009-8.202,1.926-9.696,6.536
		c-2.018,6.23,2.642,11.619,10.08,11.634C333.517,289.497,356.65,289.469,379.784,289.46z M379.347,333.726
		c23.29,0,46.58,0.029,69.871-0.021c5.892-0.012,9.899-3.771,9.902-8.967c0-4.874-3.981-8.773-9.42-9.18
		c-1.09-0.082-2.188-0.043-3.282-0.043c-44.548,0-89.098,0.001-133.645,0.007c-1.563,0-3.145-0.103-4.685,0.098
		c-5.434,0.712-9.058,5.565-8.052,10.644c0.946,4.783,4.53,7.444,10.377,7.452C333.393,333.751,356.37,333.729,379.347,333.726z"/>
	<path display="inline" fill-rule="evenodd" clip-rule="evenodd" fill="#FF1800" d="M198.419,106.412c0-2.351,0-4.18,0-6.01
		c-0.003-16.895,0.091-33.793-0.077-50.688c-0.042-4.205,1.233-5.791,5.636-5.772c33.167,0.138,66.333,0.116,99.5-0.004
		c4.146-0.015,5.405,1.518,5.366,5.527c-0.156,16.896-0.064,33.793-0.064,50.689c0,1.85,0,3.698,0,6.26
		c6.566,0,12.757-0.016,18.945,0.004c8.931,0.027,12.516,3.575,12.54,12.508c0.035,13.142,0.037,26.284,0.004,39.425
		c-0.021,8.903-3.595,12.396-12.62,12.397c-48.501,0.006-96.999,0.006-145.498-0.001c-9.095,0-12.685-3.645-12.69-12.837
		c-0.009-12.984-0.048-25.971,0.009-38.956c0.038-8.897,3.717-12.508,12.573-12.538
		C187.317,106.397,192.592,106.412,198.419,106.412z M274.084,106.119c0-8.285-0.034-16.077,0.018-23.867
		c0.016-2.592-1.145-3.618-3.704-3.605c-11.258,0.057-22.516-0.058-33.77,0.152c-1.142,0.021-3.193,1.762-3.227,2.756
		c-0.265,8.085-0.148,16.184-0.148,24.564C246.973,106.119,260.187,106.119,274.084,106.119z"/>
	<path display="inline" fill-rule="evenodd" clip-rule="evenodd" fill="#FF1800" d="M100.186,266.768
		c27.502,23.686,63.139,21.387,87.33-0.127c8.023,8.871,13.576,19.31,13.856,31.048c0.708,29.528,0.234,59.083,0.234,88.962
		c-38.419,0-76.834,0-115.971,0c0-1.462,0-2.956,0-4.452c0.001-25.818-0.039-51.639,0.023-77.458
		C85.693,290.475,90.971,276.777,100.186,266.768z"/>
	<path display="inline" fill-rule="evenodd" clip-rule="evenodd" fill="#FF1800" d="M143.775,260.369
		c-22.569-0.045-40.542-18.067-40.483-40.599c0.059-22.577,18.039-40.485,40.618-40.458c22.536,0.028,40.656,18.191,40.507,40.601
		C184.266,242.557,166.331,260.412,143.775,260.369z"/>
</g>
<g display="none">
	<rect x="-253" y="-421" display="inline" fill-rule="evenodd" clip-rule="evenodd" fill="#FFFFFF" width="1646" height="318"/>
	<g display="inline">
		<path fill-rule="evenodd" clip-rule="evenodd" fill="#006cb5" d="M-124.289-331.262c0,3.814,0,7.364,0,11.225
			c-0.713,0-1.478,0-2.244,0c-15.021,0-30.042-0.001-45.064,0.001c-4.78,0.001-6.925,2.096-6.927,6.876
			c-0.011,31.712-0.009,63.425,0.002,95.136c0.001,4.511,2.155,6.608,6.718,6.609c31.64,0.003,63.279,0.001,94.918-0.001
			c4.968-0.001,7.014-2.029,7.015-6.974c0.004-28.52,0.002-57.038,0.003-85.558c0-0.866,0-1.731,0-2.854
			c0.86-0.039,1.623-0.101,2.386-0.102c8.346-0.007,16.69,0.01,25.035-0.017c1.52-0.004,3.052-0.07,4.554-0.283
			c8.44-1.196,13.946-7.59,14.014-16.225c0.021-2.532,0.003-5.064,0.003-7.94c0.92,0,1.684,0,2.449,0
			c16.908,0,33.816-0.008,50.724,0.004c6.114,0.004,9.786,3.573,9.791,9.723c0.03,42.669,0.031,85.339,0,128.008
			c-0.004,6.22-3.748,9.816-9.963,9.816c-69.52,0.003-139.039,0.003-208.558,0.001c-6.238-0.001-9.907-3.613-9.909-9.831
			c-0.012-42.669-0.011-85.339,0-128.009c0.002-6.121,3.619-9.704,9.766-9.708c17.634-0.013,35.268-0.005,52.902,0
			C-125.964-331.363-125.255-331.305-124.289-331.262z M-16.35-221.322c10.292,0,20.583,0,30.875-0.001
			c0.724,0,1.455,0.03,2.172-0.048c2.194-0.237,3.803-1.891,3.922-3.969c0.109-1.937-1.266-3.778-3.327-4.261
			c-0.901-0.211-1.865-0.218-2.8-0.219c-20.655-0.011-41.313-0.008-61.968,0c-0.793,0-1.606-0.002-2.375,0.16
			c-2.046,0.434-3.453,2.231-3.399,4.209c0.05,1.869,1.481,3.575,3.43,3.966c0.773,0.156,1.583,0.156,2.377,0.158
			C-37.079-221.318-26.714-221.32-16.35-221.322z M-16.286-291.372c-10.291,0-20.583,0-30.874,0.002
			c-0.725,0-1.456-0.028-2.174,0.044c-2.183,0.224-3.771,1.868-3.898,3.984c-0.123,2.012,1.411,3.946,3.526,4.33
			c0.776,0.141,1.589,0.102,2.385,0.102c20.655,0.005,41.311,0.005,61.966,0.002c0.725,0,1.457,0.031,2.171-0.054
			c2.142-0.257,3.756-2.017,3.807-4.085c0.049-2.017-1.539-3.905-3.649-4.235c-0.781-0.122-1.59-0.085-2.386-0.085
			C4.297-291.372-5.994-291.37-16.286-291.372z M-16.165-262.426c10.798,0,21.597,0.018,32.396-0.013
			c2.554-0.007,4.375-1.805,4.392-4.138c0.015-2.185-1.77-4.035-4.136-4.242c-0.719-0.063-1.448-0.032-2.173-0.033
			c-15.075-0.002-30.15-0.002-45.226-0.001c-5.87,0-11.74,0.009-17.611-0.001c-2.197-0.004-3.803,0.893-4.496,3.03
			c-0.936,2.889,1.225,5.388,4.674,5.395C-37.619-262.409-26.892-262.422-16.165-262.426z M-16.368-241.901
			c10.799,0,21.599,0.014,32.398-0.01c2.732-0.005,4.59-1.749,4.592-4.158c0-2.26-1.846-4.068-4.368-4.257
			c-0.505-0.038-1.015-0.02-1.522-0.02c-20.656,0-41.313,0-61.969,0.003c-0.725,0-1.458-0.047-2.172,0.045
			c-2.52,0.33-4.2,2.581-3.734,4.935c0.439,2.218,2.101,3.452,4.812,3.456C-37.676-241.89-27.022-241.9-16.368-241.901z"/>
		<path fill-rule="evenodd" clip-rule="evenodd" fill="#FF1800" d="M-100.261-347.302c0-1.09,0-1.938,0-2.787
			c-0.001-7.834,0.042-15.669-0.036-23.503c-0.02-1.95,0.572-2.685,2.613-2.677c15.379,0.064,30.757,0.054,46.137-0.002
			c1.922-0.007,2.506,0.704,2.488,2.563c-0.072,7.834-0.03,15.669-0.03,23.503c0,0.858,0,1.715,0,2.903
			c3.045,0,5.915-0.007,8.785,0.001c4.141,0.013,5.803,1.658,5.814,5.8c0.017,6.094,0.018,12.188,0.002,18.281
			c-0.01,4.128-1.667,5.748-5.852,5.748c-22.489,0.003-44.977,0.003-67.465,0c-4.217,0-5.882-1.69-5.884-5.952
			c-0.004-6.021-0.022-12.042,0.004-18.063c0.018-4.125,1.724-5.8,5.83-5.814C-105.409-347.309-102.963-347.302-100.261-347.302z
			 M-65.176-347.438c0-3.842-0.016-7.455,0.008-11.067c0.007-1.202-0.531-1.677-1.718-1.671c-5.22,0.026-10.44-0.027-15.659,0.07
			c-0.529,0.01-1.48,0.817-1.496,1.278c-0.123,3.749-0.069,7.504-0.069,11.39C-77.748-347.438-71.62-347.438-65.176-347.438z"/>
		<path fill-rule="evenodd" clip-rule="evenodd" fill="#FF1800" d="M-145.81-272.949c12.752,10.983,29.277,9.917,40.494-0.059
			c3.72,4.113,6.295,8.954,6.425,14.396c0.328,13.691,0.108,27.396,0.108,41.25c-17.814,0-35.626,0-53.773,0
			c0-0.678,0-1.371,0-2.064c0-11.972-0.018-23.944,0.011-35.916C-152.53-261.956-150.083-268.307-145.81-272.949z"/>
		<path fill-rule="evenodd" clip-rule="evenodd" fill="#FF1800" d="M-125.598-275.916c-10.465-0.021-18.798-8.377-18.771-18.825
			c0.027-10.469,8.364-18.772,18.834-18.76c10.449,0.013,18.852,8.435,18.783,18.826
			C-106.823-284.175-115.14-275.896-125.598-275.916z"/>
	</g>
	<path display="inline" fill-rule="evenodd" clip-rule="evenodd" fill="#006cb5" d="M365.953-383.952
		c1.263,0.637,2.612,1.146,3.772,1.934c3.46,2.347,5.054,5.733,5.131,9.867c0.027,1.436,0.005,2.873,0.005,4.648
		c2.007,0,3.874-0.03,5.74,0.006c4.391,0.085,8.845-0.239,13.156,0.396c9.627,1.417,15.708,10.256,13.89,19.75
		c-5.093,26.594-19.303,46.824-42.513,60.779c-1.117,0.672-2.113,1.915-2.655,3.121c-5.491,12.223-12.325,23.543-22.657,32.288
		c-3.893,3.295-8.429,5.858-12.804,8.538c-1.219,0.747-1.658,1.411-1.686,2.764c-0.226,11.306,7.011,21.14,17.926,24.26
		c4.323,1.235,5.375,2.622,5.376,7.109c0.003,7.576,0.001,15.154,0.001,23.123c1.058,0,2.001-0.036,2.941,0.006
		c3.627,0.161,7.35-0.119,10.858,0.619c7.421,1.559,12.123,7.832,12.396,15.895c0.135,3.94,0.003,7.888,0.038,11.831
		c0.027,2.909-1.397,4.837-3.911,6.089c-41.72,0-83.439,0-125.159,0c-2.901-1.47-3.979-3.834-3.821-7.052
		c0.171-3.48,0-6.976,0.047-10.463c0.139-10.032,6.843-16.742,16.896-16.915c2.953-0.051,5.908-0.008,9.226-0.008
		c0-0.916,0-1.714,0-2.512c0-6.901-0.004-13.802,0.001-20.704c0.002-4.305,1.149-5.819,5.268-6.985
		c10.798-3.057,18.045-12.607,18.058-23.705c0.003-1.602-0.407-2.5-2.027-3.255c-11.27-5.258-19.723-13.76-26.324-24.068
		c-3.537-5.523-6.306-11.536-9.496-17.286c-0.552-0.994-1.315-2.055-2.261-2.618c-23.352-13.903-37.61-34.181-42.709-60.858
		c-2.009-10.512,5.843-19.981,16.583-20.13c5.293-0.074,10.588-0.013,16.034-0.013c0.065-0.764,0.201-1.349,0.152-1.919
		c-0.598-7.046,2.155-12.019,8.926-14.532C288.885-383.952,327.419-383.952,365.953-383.952z M252.463-373.003
		c-0.053,0.933-0.13,1.675-0.131,2.417c-0.008,7.813-0.033,15.625,0.002,23.437c0.085,18.625,2.651,36.84,9.412,54.294
		c5.094,13.146,11.848,25.287,22.9,34.449c10.987,9.107,23.23,12.186,36.808,6.399c9.295-3.961,16.124-10.939,21.731-19.127
		c13.65-19.93,19.145-42.473,20.428-66.184c0.594-10.969,0.278-21.988,0.359-32.984c0.006-0.876-0.108-1.752-0.171-2.701
		C326.638-373.003,289.719-373.003,252.463-373.003z M363.98-161.898c0-1.831,0.003-3.554,0-5.279
		c-0.011-5.563-1.75-7.285-7.374-7.286c-32.152-0.001-64.305-0.003-96.457,0.011c-1.13,0.001-2.29,0.04-3.384,0.289
		c-1.935,0.441-3.412,1.757-3.608,3.662c-0.289,2.814-0.074,5.68-0.074,8.604C290.055-161.898,326.876-161.898,363.98-161.898z
		 M337.691-204.479c-19.671,0-39.112,0-58.529,0c0,6.422,0,12.683,0,18.928c19.584,0,39.02,0,58.529,0
		C337.691-191.933,337.691-198.131,337.691-204.479z M241.482-356.652c-5.308,0-10.295-0.015-15.283,0.004
		c-5.024,0.019-7.663,3.037-6.745,7.908c3.389,18.004,12.073,32.963,26.004,44.867c0.403,0.345,0.875,0.609,1.701,1.174
		C242.237-320.571,241.145-338.36,241.482-356.652z M374.829-356.618c0.33,18.258-0.776,36.116-5.588,53.598
		c0.305,0.018,0.399,0.054,0.446,0.021c0.307-0.212,0.614-0.426,0.9-0.665c7.922-6.576,14.205-14.474,18.958-23.593
		c3.521-6.757,5.909-13.911,7.295-21.397c0.8-4.315-1.31-7.72-5.295-7.903C386.11-356.805,380.654-356.618,374.829-356.618z
		 M323.395-215.615c-5.693-6.818-8.749-14.367-8.986-22.829c-4.083,0-7.98,0-12.03,0c-0.23,8.682-3.32,16.132-8.934,22.829
		C303.562-215.615,313.272-215.615,323.395-215.615z"/>
	<path display="inline" fill-rule="evenodd" clip-rule="evenodd" fill="#FF1800" d="M285.689-294.991
		c0.675-3.997,1.292-8.578,2.269-13.081c0.537-2.474,0.14-4.184-1.826-5.896c-3.138-2.734-5.993-5.792-8.987-8.693
		c-1.715-1.662-2.515-3.572-1.735-5.943c0.778-2.371,2.593-3.461,4.919-3.807c4.49-0.666,8.979-1.348,13.487-1.874
		c1.625-0.189,2.519-0.856,3.204-2.335c1.875-4.05,3.956-8.004,5.88-12.032c1.073-2.243,2.695-3.74,5.214-3.754
		c2.516-0.015,4.173,1.438,5.252,3.689c2.027,4.23,4.074,8.455,6.268,12.6c0.41,0.776,1.478,1.536,2.347,1.683
		c4.547,0.77,9.128,1.342,13.698,1.977c2.411,0.335,4.35,1.334,5.192,3.787c0.845,2.457-0.046,4.417-1.817,6.132
		c-3.213,3.11-6.335,6.319-9.633,9.336c-1.284,1.175-1.611,2.297-1.28,3.948c0.818,4.077,1.487,8.184,2.198,12.282
		c0.759,4.379-0.65,7.214-4.126,7.725c-1.31,0.192-2.876-0.17-4.092-0.761c-4.147-2.02-8.152-4.335-12.305-6.344
		c-0.901-0.436-2.37-0.441-3.27-0.007c-4.29,2.073-8.44,4.429-12.703,6.561C289.896-287.822,285.752-290.23,285.689-294.991z
		 M317.921-304.472c-0.433-2.754-0.653-5.012-1.168-7.201c-0.634-2.699,0.282-4.698,2.227-6.474
		c1.624-1.483,3.146-3.078,5.039-4.943c-2.89-0.453-5.182-0.904-7.494-1.149c-2.55-0.27-4.107-1.652-5.146-3.888
		c-0.964-2.075-2.046-4.095-3.249-6.485c-1.229,2.478-2.275,4.484-3.227,6.535c-1.042,2.24-2.639,3.576-5.179,3.849
		c-2.342,0.252-4.659,0.728-7.209,1.14c2.019,2.072,3.757,3.855,5.494,5.639c1.412,1.45,2.013,3.123,1.629,5.172
		c-0.456,2.435-0.792,4.892-1.252,7.796c2.333-1.198,4.324-2.08,6.169-3.203c2.478-1.508,4.801-1.446,7.258,0.018
		C313.619-306.589,315.539-305.706,317.921-304.472z"/>
</g>
<g display="none">
	<path display="inline" fill-rule="evenodd" clip-rule="evenodd" fill="#006cb5" d="M84.801,255.01
		c2.212-10.446,4.665-19.396,5.789-28.512c0.519-4.196-0.648-9.207-2.673-12.977c-3.726-6.94-8.387-13.439-13.169-19.733
		c-3.205-4.218-3.654-7.489-0.194-11.868c4.57-5.783,7.916-12.567,12.7-18.137c4.792-5.578,4.599-11.228,3.167-17.653
		c-1.996-8.962-7.26-19.513-4.349-26.602c2.917-7.106,13.761-11.555,21.856-15.774c8.304-4.328,9.873-11.437,11.353-19.29
		c1.5-7.961,1.071-18.126,5.87-23.093c4.506-4.662,14.678-4.256,22.464-5.239c9.553-1.206,17.01-4.752,20.8-14.162
		c0.577-1.435,1.763-2.618,2.633-3.942c11.405-17.364,11.55-17.896,31.204-12.417c11.798,3.289,21.076,2.12,31.211-5.723
		c17.1-13.233,18.354-13.289,35.484,0.244c10.246,8.094,19.664,8.571,31.278,5.421c19.374-5.255,20.26-5.281,29.915,11.706
		c7.036,12.383,16.171,18.265,30.284,19.818c18.166,1.999,19.204,2.826,20.994,20.891c1.489,15.012,8.356,24.079,21.113,31.19
		c15.521,8.65,16.546,9.813,11.281,26.635c-4.848,15.487-1.261,26.952,8.332,38.909c10.016,12.486,9.979,13.526,0.191,25.879
		c-9.632,12.159-13.513,23.837-8.489,39.642c5.151,16.199,4.144,17.669-11.182,25.862c-13.758,7.359-19.908,17.564-21.454,32.743
		c-1.698,16.692-2.494,17.599-19.059,19.165c-15.669,1.482-25.732,8.402-33.189,22.172c-7.864,14.52-9.216,15.489-24.838,10.548
		c-15.896-5.03-27.953-1.713-40.401,8.356c-12.111,9.797-13.242,9.679-25.173,0.161c-12.361-9.864-24.319-13.726-40.354-8.542
		c-15.838,5.12-17.428,4.153-25.346-10.946c-7.447-14.202-18.297-19.671-33.403-21.889c-19.641-2.882-15.824,0.994-18.539-18.728
		c-2.105-15.287-7.394-26.781-22.033-33.144c-4.055-1.762-7.654-4.674-11.251-7.34C86.213,257.596,85.374,255.774,84.801,255.01z
		 M250.965,63.986c-68.574,0.008-123.744,55.195-123.735,123.773c0.009,68.504,55.306,123.778,123.821,123.771
		c68.508-0.008,123.712-55.278,123.704-123.861C374.749,119.078,319.602,63.978,250.965,63.986z"/>
	<path display="inline" fill-rule="evenodd" clip-rule="evenodd" fill="#006cb5" d="M105.74,283.278
		c1.888,9.457,3.902,18.889,5.63,28.375c1.997,10.961,4.681,14.79,15.644,15.43c19.142,1.116,33.383,8.318,41.325,26.657
		c4.245,9.8,11.462,15.375,23.764,11.068c-25.061,41.763-50.122,83.522-76.24,127.045c-7.931-27.58-15.232-52.97-22.629-78.693
		c-27.812,5.531-54.874,10.913-84.436,16.792c32.309-50.28,63.347-98.581,94.384-146.882
		C104.034,283.141,104.887,283.21,105.74,283.278z"/>
	<path display="inline" fill-rule="evenodd" clip-rule="evenodd" fill="#006cb5" d="M493.203,429.858
		c-29.162-5.791-56.195-11.159-84.38-16.757c-7.363,25.588-14.67,50.977-22.646,78.7c-26.06-43.396-51.154-85.188-76.449-127.317
		c16.619,0.718,17.617,1.254,25.713-13.791c7.73-14.363,18.376-21.044,34.417-22.883c18.594-2.133,18.413-3.185,21.873-21.935
		c1.401-7.6,3.122-15.138,4.699-22.705c0.75-0.112,1.499-0.224,2.252-0.336C429.788,331.219,460.892,379.602,493.203,429.858z"/>
	<path display="inline" fill-rule="evenodd" clip-rule="evenodd" fill="#FF1800" d="M235.209,261.699
		c-25.375-22.527-50.184-44.553-75.612-67.127c7.478-8.454,14.576-16.48,22.363-25.286c17.158,15.178,33.865,29.957,51.131,45.23
		c28.319-30.171,56.445-60.135,84.826-90.368c8.288,7.802,16.116,15.167,24.573,23.126
		C306.628,185.528,271.154,223.36,235.209,261.699z"/>
</g>
<g display="none">
	<path display="inline" fill-rule="evenodd" clip-rule="evenodd" fill="#006cb5" d="M265.134,452.693c0,12.477,0,25.734,0,39.307
		c-8.76,0-17.057,0-25.999,0c0-13.329,0-26.719,0-39.319C128.746,435.866,65.771,373.082,48.844,262.59c-12.33,0-25.729,0-39.384,0
		c0-8.918,0-17.213,0-26.146c13.499,0,26.893,0,40.599,0c4.154-50.751,23.417-94.193,59.079-129.849
		c35.664-35.659,79.092-54.961,129.688-59.101c0-13.559,0-26.823,0-40.494c8.861,0,17.272,0,26.169,0c0,13.313,0,26.565,0,40.422
		c50.679,4.096,94.25,23.42,129.992,59.185c35.646,35.669,54.897,79.115,59.052,129.688c13.612,0,26.873,0,40.502,0
		c0,8.872,0,17.281,0,26.173c-13.439,0-26.695,0-39.267,0C438.567,372.701,375.758,435.643,265.134,452.693z M117.68,262.575
		c-7.905,0-15.508,0-23.13,0c4.77,80.289,75.561,141.77,144.583,144.111c0-7.604,0-15.203,0-22.83c8.882,0,17.185,0,26.047,0
		c0,7.896,0,15.496,0,23.116c72.561-4.164,138.985-65.696,144.524-144.462c-7.767,0-15.508,0-23.276,0c0-9.028,0-17.327,0-26.181
		c7.908,0,15.51,0,23.133,0c-4.739-79.703-74.992-141.83-144.596-144.097c0,7.604,0,15.201,0,22.817c-8.881,0-17.183,0-26.045,0
		c0-7.901,0-15.5,0-23.123c-79.342,4.833-141.766,74.54-144.083,144.619c7.605,0,15.204,0,22.842,0
		C117.68,245.421,117.68,253.721,117.68,262.575z"/>
	<path display="inline" fill-rule="evenodd" clip-rule="evenodd" fill="#FF1800" d="M322.276,338.022
		c0-12.891-0.438-24.818,0.089-36.704c1.166-26.37-17.197-43.479-34.232-50.109c-4.848-1.887-10.126-3.42-15.271-3.645
		c-18.068-0.79-36.426-3.049-54.119,1.548c-20.853,5.417-35.708,18.585-39.983,40.393c-1.967,10.032-0.769,20.691-0.932,31.067
		c-0.087,5.549-0.016,11.102-0.016,17.233c-32.046-24.789-50.271-72.047-37.163-117.983c13.62-47.729,56.817-81.518,105.556-82.78
		c50.386-1.307,95.438,29.78,111.456,76.974C373.525,260.752,356.857,310.298,322.276,338.022z M292.557,198.198
		c0.062-23.819-18.554-42.598-42.339-42.711c-23.749-0.114-42.602,18.598-42.68,42.362c-0.079,23.783,18.646,42.685,42.335,42.735
		C273.668,240.635,292.497,221.939,292.557,198.198z"/>
	<path display="inline" fill-rule="evenodd" clip-rule="evenodd" fill="#FF1800" d="M214.896,358.497
		c-8.761-2.307-8.763-2.307-8.762-10.398c0.001-14.249-0.072-28.498,0.038-42.746c0.058-7.384,2.387-10.152,8.724-10.833
		C214.896,315.768,214.896,336.99,214.896,358.497z"/>
	<path display="inline" fill-rule="evenodd" clip-rule="evenodd" fill="#FF1800" d="M285.198,294.36
		c6.556,1.312,8.658,3.83,8.741,10.82c0.137,11.611,0.043,23.225,0.045,34.837c0,2.815,0,5.631,0,8.446
		c-0.002,8.074-0.002,8.074-8.786,9.919C285.198,337.114,285.198,315.896,285.198,294.36z"/>
</g>
<g display="none">
	<path display="inline" fill-rule="evenodd" clip-rule="evenodd" fill="#006cb5" d="M486,154.394
		c-9.097-1.379-18.223-2.593-27.274-4.218c-3.526-0.632-5.68-0.007-7.447,3.301c-2.379,4.449-5.785,8.38-7.903,12.928
		c-5.973,12.828-16.888,15.431-29.031,13.355c-29.307-5.01-52.71-20.015-69.988-44.229c-7.38-10.341-8.957-21.018-0.521-31.935
		c3.183-4.118,5.373-8.987,8.294-13.326c1.666-2.476,1.595-4.335-0.116-6.776c-4.974-7.099-9.609-14.433-14.535-21.565
		c-3.326-4.817-3.895-9.719-0.718-14.657c3.191-4.961,7.856-6.144,13.656-5.286c28.918,4.281,57.893,8.179,86.783,12.635
		c3.513,0.542,7.758,2.84,9.758,5.67c17.102,24.191,33.796,48.67,50.528,73.12c3.253,4.752,3.264,10.128,0.527,14.92
		C495.548,152.649,491.218,154.689,486,154.394z M429.513,143.864c-9.666-1.411-18.188-2.748-26.737-3.871
		c-7.778-1.023-14.298-3.341-18.509-10.986c-3.851-6.99-9.078-13.224-13.95-20.149c-1.7,2.456-2.788,4.352-4.19,5.973
		c-2.118,2.449-2.049,4.687-0.116,7.181c13.445,17.354,30.576,28.8,52.424,32.549c1.409,0.242,3.553-0.574,4.525-1.647
		C425.216,150.42,426.966,147.466,429.513,143.864z"/>
	<path display="inline" fill-rule="evenodd" clip-rule="evenodd" fill="#006cb5" d="M238.727,243
		c-7.686-1.722-15.518-2.97-23.013-5.299c-7.193-2.236-11.532-7.682-13.234-15.177c-1.436-6.322-2.905-12.656-4.873-18.821
		c-0.531-1.66-2.768-3.576-4.506-3.916c-8.842-1.725-17.767-3.056-26.687-4.354c-5.455-0.793-8.905-3.909-10.485-8.924
		c-1.613-5.125-0.276-9.679,4.037-13.075c23.696-18.661,47.339-37.391,71.242-55.782c2.526-1.943,6.804-2.979,9.976-2.5
		c29.231,4.414,58.387,9.318,87.59,13.917c5.887,0.926,9.656,4.011,11.142,9.563c1.527,5.708-0.816,10.084-5.418,13.649
		c-6.994,5.418-13.91,10.956-20.573,16.771c-1.342,1.171-2.221,3.939-1.917,5.735c1.017,6.027,2.44,12.012,4.127,17.892
		c2.34,8.154,0.526,15.587-5.574,20.766c-7.618,6.465-15.873,12.527-24.701,17.138C271.322,238.172,255.431,241.625,238.727,243z
		 M224.035,206.014c2.833,12.753,1.021,11.582,11.825,11.979c17.206,0.631,33.675-3.143,48.747-11.87
		c9.184-5.317,9.404-6.154,5.406-16.127c-0.049-0.123-0.236-0.19-0.677-0.524c-7.543,5.65-15.203,11.333-22.799,17.101
		c-4.406,3.344-9.14,4.804-14.681,3.533c-3.329-0.764-6.746-1.156-10.135-1.643C235.916,207.626,230.099,206.85,224.035,206.014z"/>
	<path display="inline" fill-rule="evenodd" clip-rule="evenodd" fill="#006cb5" d="M122.107,55.058
		c14.448,0.565,28.895,1.17,43.346,1.673c5.856,0.205,11.45,0.962,13.723,7.407c2.171,6.157,0.061,11.146-4.64,15.533
		c-5.943,5.549-11.443,11.572-17.363,17.147c-2.2,2.071-2.616,3.793-1.402,6.533c2.558,5.767,4.529,11.8,7.214,17.501
		c3.941,8.369,2.198,15.824-2.963,22.834c-9.051,12.292-21.37,20.417-35.085,26.455c-16.375,7.211-33.312,11.975-51.492,8.985
		c-9.633-1.585-16.614-6.438-19.676-16.25c-1.876-6.015-4.478-11.8-6.492-17.776c-0.958-2.842-2.453-3.891-5.48-3.868
		c-8.675,0.067-17.354-0.166-26.03-0.326c-5.356-0.099-10.14-1.362-12.218-7.062c-2.061-5.65-0.796-10.458,3.509-14.79
		c20.267-20.386,40.308-41,60.77-61.188c2.628-2.592,7.245-4.453,10.942-4.453c14.449-0.004,28.898,0.875,43.348,1.426
		C122.113,54.913,122.11,54.985,122.107,55.058z M73.412,145.453c2.126,9.914,2.654,10.572,12.165,9.791
		c17.686-1.451,33.62-7.672,47.677-18.547c7.782-6.022,7.753-6.066,3.847-15.307c-0.104-0.249-0.502-0.373-1.187-0.852
		c-6.119,5.933-12.405,11.844-18.472,17.973c-4.815,4.865-10.143,7.494-17.292,7.067C91.359,145.054,82.513,145.453,73.412,145.453z
		"/>
	<path display="inline" fill-rule="evenodd" clip-rule="evenodd" fill="#FF1800" d="M223.354,431.078
		c8.628-6.91,18.226-9.207,28.702-8.805c12.26,0.472,24.701-0.431,36.749,1.37c17.099,2.554,29.216,18.999,28.261,36.533
		c-1.693,0-3.433,0-5.172,0c-33.089,0-66.179-0.092-99.267,0.092c-5.433,0.031-9.361-2-12.692-5.894
		c-5.524-6.456-11.528-12.578-16.369-19.511c-2.711-3.884-4.867-9.102-4.921-13.745c-0.4-35.074-0.237-70.153-0.207-105.231
		c0.008-10.626,6.664-18.048,16.023-18.05c9.295-0.002,16.226,7.507,16.254,18.03c0.08,30.919,0.178,61.841-0.103,92.757
		c-0.053,5.827,1.076,10.47,5.455,14.406C218.602,425.309,220.683,428.09,223.354,431.078z"/>
	<path display="inline" fill-rule="evenodd" clip-rule="evenodd" fill="#FF1800" d="M83.647,431.103
		c8.811-7.024,18.424-9.239,28.878-8.83c11.89,0.466,23.954-0.398,35.643,1.333c17.033,2.523,28.797,18.281,28.512,36.571
		c-1.861,0-3.749,0-5.636,0c-32.705,0-65.41-0.089-98.113,0.091c-5.195,0.029-9.099-1.749-12.321-5.486
		c-5.899-6.84-12.159-13.431-17.402-20.747c-2.551-3.56-4.392-8.507-4.435-12.847c-0.349-35.231-0.218-70.467-0.182-105.702
		c0.011-10.034,6.845-17.495,15.972-17.65c9.228-0.157,16.37,7.5,16.385,17.807c0.046,31.26,0.122,62.519-0.086,93.777
		c-0.035,5.204,0.891,9.394,4.91,12.955C78.582,424.865,80.855,427.964,83.647,431.103z"/>
	<path display="inline" fill-rule="evenodd" clip-rule="evenodd" fill="#FF1800" d="M460.78,460.177c-13.231,0-26.046,0-38.859,0
		c-22.059,0-44.119-0.13-66.176,0.094c-5.395,0.054-9.436-1.816-12.784-5.729c-5.758-6.73-11.911-13.183-17.039-20.366
		c-2.56-3.584-4.485-8.515-4.529-12.858c-0.356-35.254-0.272-70.514-0.155-105.771c0.035-10.563,7.198-17.979,16.473-17.699
		c9.248,0.28,15.677,7.42,15.701,17.844c0.072,30.919,0.159,61.838-0.089,92.755c-0.047,5.805,1.076,10.493,5.48,14.437
		c2.659,2.381,4.862,5.272,7.521,8.211c9.221-7.686,19.882-9.276,31.158-8.82c11.177,0.451,22.521-0.406,33.507,1.226
		C448.517,426.101,460.654,441.688,460.78,460.177z"/>
	<path display="inline" fill-rule="evenodd" clip-rule="evenodd" fill="#FF1800" d="M123.891,327.78
		c23.675,0.021,42.658,19.065,42.567,42.704c-0.09,23.31-19.044,42.209-42.477,42.353c-23.475,0.145-42.881-19.08-42.93-42.527
		C81.002,346.885,100.267,327.761,123.891,327.78z"/>
	<path display="inline" fill-rule="evenodd" clip-rule="evenodd" fill="#FF1800" d="M264.181,412.83
		c-23.709-0.086-42.438-19.028-42.356-42.838c0.082-23.738,18.965-42.325,42.884-42.209c23.458,0.112,42.16,18.954,42.149,42.464
		C306.849,393.934,287.823,412.915,264.181,412.83z"/>
	<path display="inline" fill-rule="evenodd" clip-rule="evenodd" fill="#FF1800" d="M407.175,327.783
		c23.858-0.004,42.574,18.71,42.558,42.551c-0.016,23.696-19.116,42.705-42.711,42.504c-23.45-0.197-42.242-18.97-42.438-42.389
		C364.386,346.966,383.533,327.786,407.175,327.783z"/>
</g>
<g display="none">
	<path display="inline" fill-rule="evenodd" clip-rule="evenodd" fill="#006cb5" d="M436.086,157.07
		c10.17,0,19.978,0.072,29.783-0.019c10.033-0.094,13.884,3.438,13.879,13.467c-0.007,24.412,0.382,48.841-0.381,73.233
		c-0.695,22.333-15.374,41.423-36.713,48.173c-6.549,2.071-8.132,4.977-6.348,11.408c9.569,0,19.327-0.026,29.084,0.018
		c2.447,0.012,5.055-0.241,7.312,0.489c4.54,1.472,6.998,4.979,6.979,9.801c-0.102,26.872,1.197,53.858-0.899,80.577
		c-1.751,22.317-16.164,37.107-37.416,44.264c-4.638,1.563-5.893,3.516-5.791,8.108c0.292,13.33,0.175,26.671,0.076,40.007
		c-0.072,9.652-3.844,13.386-13.499,13.387c-114.485,0.023-228.97,0.024-343.454,0.001c-10.259-0.002-13.508-3.702-13.509-15.146
		c-0.008-127.203-0.005-254.409-0.005-381.615c0-25.236-0.021-50.472,0.01-75.708c0.015-11.328,3.276-14.511,14.768-14.511
		c128.437-0.006,256.873-0.006,385.308,0.001c11.09,0,14.5,3.282,14.487,14.166c-0.023,23.797,0.386,47.611-0.38,71.386
		c-0.729,22.692-15.495,41.648-37.138,48.519C436.41,148.927,434.46,151.475,436.086,157.07z M414.841,478.742
		c0-3.048,0.012-5.478,0-7.909c-0.149-30.359-0.416-60.722-0.422-91.081c-0.002-30.156,0.335-60.311,0.383-90.467
		c0.08-49.435-0.002-98.871,0.111-148.306c0.02-7.579,3.219-10.654,10.744-11.495c21.349-2.386,33.155-15.368,33.259-36.759
		c0.086-17.441,0.031-34.881,0.005-52.322c-0.003-1.979-0.225-3.957-0.354-6.09c-124.349,0-248.152,0-372.188,0
		c0,148.311,0,296.171,0,444.429C195.784,478.742,304.84,478.742,414.841,478.742z"/>
	<path display="inline" fill-rule="evenodd" clip-rule="evenodd" fill="#FF1800" d="M235.53,333.022
		c-37.565,0-75.134,0.144-112.698-0.229c-3.579-0.039-8.153-2.497-10.35-5.319c-1.615-2.077-1.375-7.593,0.336-9.757
		c2.118-2.677,6.56-4.699,10.091-4.855c12.833-0.56,25.705-0.221,38.563-0.221c60.669-0.003,121.338,0,182.008,0
		c1.409,0,2.813-0.02,4.219,0.003c7.438,0.121,12.392,4.243,12.363,10.275c-0.029,6.073-4.901,10.089-12.432,10.092
		C310.264,333.035,272.897,333.022,235.53,333.022z"/>
	<path display="inline" fill-rule="evenodd" clip-rule="evenodd" fill="#FF1800" d="M235.256,376.436
		c-37.368,0-74.735,0.022-112.102-0.018c-9.521-0.01-15.498-7.74-10.887-14.646c1.876-2.813,6.265-5.117,9.73-5.466
		c7.956-0.799,16.047-0.257,24.082-0.257c66.296,0,132.59,0,198.886,0.003c2.01,0,4.041-0.139,6.022,0.117
		c4.967,0.643,8.893,4.984,9.063,9.779c0.175,4.962-3.879,9.672-9.09,10.37c-1.778,0.238-3.61,0.115-5.414,0.115
		C308.78,376.438,272.019,376.436,235.256,376.436z"/>
	<path display="inline" fill-rule="evenodd" clip-rule="evenodd" fill="#FF1800" d="M235.473,398.23
		c37.166,0,74.33-0.008,111.492,0.004c8.118,0.003,13.024,3.791,13.095,10.026c0.067,6.224-4.97,10.309-12.905,10.309
		c-74.53,0.016-149.061,0.016-223.591,0c-7.862-0.002-12.916-4.191-12.771-10.424c0.142-6.088,4.928-9.903,12.585-9.907
		C160.741,398.222,198.106,398.231,235.473,398.23z"/>
	<g display="inline">
		<path fill-rule="evenodd" clip-rule="evenodd" fill="#FF1800" d="M342.429,145.054c-10.014,4.256-19.57,8.313-29.125,12.382
			c-22.741,9.688-45.503,19.331-68.206,29.107c-5.38,2.318-10.433,2.31-15.844-0.01c-36.738-15.747-73.54-31.345-110.288-47.071
			c-1.546-0.663-2.758-2.108-4.124-3.189c1.359-1.071,2.563-2.505,4.101-3.164c36.993-15.85,74.027-31.604,111.036-47.416
			c4.723-2.016,9.385-2.094,14.077-0.097c37.263,15.862,74.521,31.739,111.781,47.611c0.336,0.144,0.727,0.237,0.982,0.473
			c0.894,0.824,2.403,1.692,2.415,2.56c0.011,0.862-1.362,2.236-2.374,2.526c-3.038,0.873-3.612,2.679-3.575,5.638
			c0.177,13.353,0.11,26.71,0.037,40.065c-0.01,1.768,0.489,2.714,2.09,3.612c5.477,3.072,8.271,8,8.336,14.189
			c0.141,13.812,0.128,27.625,0.011,41.437c-0.071,8.358-6.343,15.474-13.916,16.185c-8.468,0.794-15.538-4.201-17.469-12.46
			c-0.35-1.49-0.36-3.082-0.363-4.626c-0.027-13.173,0.054-26.345-0.043-39.517c-0.052-7.078,2.848-12.272,9.017-15.745
			c0.687-0.386,1.38-1.481,1.384-2.252C342.453,172.032,342.429,158.772,342.429,145.054z"/>
		<path fill-rule="evenodd" clip-rule="evenodd" fill="#FF1800" d="M147.127,161.743c4.246,1.795,8.263,3.481,12.271,5.189
			c23.494,10.007,46.996,19.996,70.47,30.047c4.909,2.102,9.673,2.1,14.577,0.005c26.43-11.287,52.882-22.523,79.329-33.775
			c0.995-0.425,2.001-0.831,3.167-1.314c0.169,0.457,0.38,0.759,0.381,1.063c0.004,11.432,0.21,22.869-0.092,34.292
			c-0.259,9.732-5.902,16.687-13.146,22.418c-10.305,8.15-22.313,12.765-34.939,15.697c-32.167,7.467-64.124,6.988-95.644-3.48
			c-10.04-3.334-19.401-8.05-27.091-15.558c-6.307-6.157-9.757-13.416-9.473-22.486c0.307-9.777,0.067-19.57,0.074-29.356
			C147.011,163.687,147.077,162.885,147.127,161.743z"/>
	</g>
</g>
<g display="none">
	<path display="inline" fill-rule="evenodd" clip-rule="evenodd" fill="#006cb5" d="M251.047,383.23
		c-45.781,0-91.569,0.502-137.341-0.139c-47.324-0.664-82.721-22.203-103.139-65.082c-31.892-66.973,11.821-146.725,85.283-157.035
		c5.884-0.826,11.88-1.185,17.825-1.189c91.561-0.073,183.124-0.125,274.685-0.024c55.084,0.061,99.574,36.018,111.319,89.636
		c13.063,59.624-28.821,121.747-88.954,131.625c-8.304,1.363-16.808,2.074-25.222,2.113
		C340.686,383.34,295.866,383.232,251.047,383.23z M318.771,271.441c-0.029,35.373,28.26,63.693,63.648,63.717
		c35.28,0.027,63.764-28.398,63.772-63.643c0.009-35.287-28.406-63.703-63.702-63.702
		C347.055,207.815,318.799,236.031,318.771,271.441z M183.287,271.508c0.017-35.419-28.216-63.673-63.65-63.694
		c-35.286-0.023-63.761,28.393-63.77,63.635c-0.009,35.256,28.444,63.709,63.708,63.709
		C154.997,335.16,183.269,306.914,183.287,271.508z M246.11,218.031c0,35.941,0,71.367,0,106.703c3.686,0,6.831,0,9.955,0
		c0-35.809,0-71.1,0-106.703C252.647,218.031,249.638,218.031,246.11,218.031z"/>
	<path display="inline" fill-rule="evenodd" clip-rule="evenodd" fill="#006cb5" d="M318.621,118.583c0,10.158,0,19.892,0,30.07
		c-44.976,0-89.844,0-135.094,0c0-9.916,0-19.794,0-30.07C228.485,118.583,273.2,118.583,318.621,118.583z"/>
	<path display="inline" fill-rule="evenodd" clip-rule="evenodd" fill="#FF1800" d="M382.652,218.437
		c29.197,0.044,53.1,24.149,52.941,53.393c-0.155,28.93-24.079,52.689-53.065,52.701c-29.45,0.012-53.059-23.631-53.039-53.113
		C329.508,241.953,353.148,218.393,382.652,218.437z"/>
	<path display="inline" fill-rule="evenodd" clip-rule="evenodd" fill="#FF1800" d="M172.568,271.453
		c0.009,29.502-23.582,53.098-53.068,53.078c-29.201-0.02-53.152-24.094-53.037-53.313c0.113-28.942,24.011-52.748,52.982-52.782
		C148.959,218.404,172.56,241.958,172.568,271.453z"/>
</g>
<g display="none">
	<path display="inline" fill-rule="evenodd" clip-rule="evenodd" fill="#006cb5" d="M108.103,65.3
		c0-12.263-0.089-23.398,0.027-34.531c0.098-9.348,5.862-15.712,13.939-15.715c7.799-0.001,13.767,5.975,14.029,14.962
		c0.333,11.377,0.08,22.775,0.08,34.718c77.037,0,153.309,0,230.57,0c0-11.817-0.369-23.457,0.103-35.064
		c0.491-12.059,12.244-18.827,21.28-11.988c3.442,2.608,6.021,8.229,6.372,12.685c0.889,11.292,0.295,22.699,0.295,34.931
		c11.135,0,21.474,0,31.812,0c7.874,0.001,15.748-0.057,23.621,0.013c28.344,0.253,46.688,18.466,46.72,46.797
		c0.093,79.754,0.033,159.511,0.033,239.267c0.002,35.306,0.045,70.61-0.02,105.917c-0.034,19.164-10.509,29.677-29.678,29.682
		c-143.765,0.035-287.527,0.032-431.291,0.004c-19.698-0.003-30.064-10.367-30.069-30.044c-0.03-114.809-0.05-229.616,0.01-344.424
		c0.016-28.805,18.295-47.034,47.086-47.191C71.023,65.219,89.026,65.3,108.103,65.3z M32.541,458.551
		c146.055,0,291.699,0,437.754,0c0-87.3,0-174.015,0-261.07c-146.1,0-291.73,0-437.754,0
		C32.541,284.736,32.541,371.46,32.541,458.551z M108.143,106.704c-13.92,7.577-19.5,21.684-15.179,35.692
		c4.012,13.006,17.661,22.495,30.792,21.406c15.005-1.246,27.176-12.671,28.654-26.899c1.362-13.112-5.207-25.447-16.162-29.064
		c0,2.96,0.037,5.685-0.011,8.407c-0.053,3.041,0.046,6.107-0.326,9.113c-0.972,7.859-6.929,13.012-14.399,12.717
		c-7.429-0.292-12.999-5.914-13.326-13.822C107.96,118.745,108.143,113.221,108.143,106.704z M366.782,106.984
		c-13.138,6.863-19.017,20.602-15.547,33.599c3.786,14.189,17.033,24.158,30.918,23.263c14.868-0.958,26.332-11.628,29.086-26.57
		c1.758-9.548-5.174-27.639-16.447-29.754c0,5.363,0.126,10.625-0.028,15.877c-0.252,8.521-5.604,14.334-13.285,14.681
		c-8.026,0.362-14.074-5.289-14.636-14.139C366.511,118.704,366.782,113.431,366.782,106.984z"/>
	<path display="inline" fill-rule="evenodd" clip-rule="evenodd" fill="#FF1800" d="M166.48,276.287c0-15.758,0-30.676,0-46.297
		c22.558,0,44.922,0,67.838,0c0,15.16,0,30.474,0,46.297C211.909,276.287,189.524,276.287,166.48,276.287z"/>
	<path display="inline" fill-rule="evenodd" clip-rule="evenodd" fill="#FF1800" d="M336.087,276.395c-22.828,0-45.035,0-67.61,0
		c0-15.705,0-31.011,0-46.711c22.641,0,44.849,0,67.61,0C336.087,245.153,336.087,260.459,336.087,276.395z"/>
	<path display="inline" fill-rule="evenodd" clip-rule="evenodd" fill="#FF1800" d="M437.357,276.568c-22.839,0-44.854,0-67.553,0
		c0-15.419,0-30.694,0-46.631c22.26,0,44.63,0,67.553,0C437.357,245.278,437.357,260.575,437.357,276.568z"/>
	<path display="inline" fill-rule="evenodd" clip-rule="evenodd" fill="#FF1800" d="M65.415,351.155c0-15.508,0-30.626,0-46.295
		c22.458,0,44.874,0,67.828,0c0,15.271,0,30.559,0,46.295C110.6,351.155,88.209,351.155,65.415,351.155z"/>
	<path display="inline" fill-rule="evenodd" clip-rule="evenodd" fill="#FF1800" d="M234.294,351.239c-22.752,0-44.947,0-67.582,0
		c0-15.451,0-30.547,0-46.289c22.266,0,44.636,0,67.582,0C234.294,320.035,234.294,335.316,234.294,351.239z"/>
	<path display="inline" fill-rule="evenodd" clip-rule="evenodd" fill="#FF1800" d="M336.257,351.298c-22.808,0-45.007,0-67.712,0
		c0-15.556,0-30.838,0-46.557c22.566,0,44.948,0,67.712,0C336.257,320.235,336.257,335.332,336.257,351.298z"/>
	<path display="inline" fill-rule="evenodd" clip-rule="evenodd" fill="#FF1800" d="M437.53,304.745c0,15.549,0,30.665,0,46.321
		c-22.551,0-44.964,0-67.894,0c0-15.355,0-30.644,0-46.321C392.355,304.745,414.755,304.745,437.53,304.745z"/>
	<path display="inline" fill-rule="evenodd" clip-rule="evenodd" fill="#FF1800" d="M65.422,426.146c0-15.577,0-30.702,0-46.438
		c22.483,0,44.874,0,67.813,0c0,15.313,0,30.611,0,46.438C110.777,426.146,88.58,426.146,65.422,426.146z"/>
	<path display="inline" fill-rule="evenodd" clip-rule="evenodd" fill="#FF1800" d="M234.573,379.777c0,15.484,0,30.612,0,46.317
		c-22.658,0-45.028,0-67.853,0c0-15.394,0-30.514,0-46.317C188.978,379.777,211.35,379.777,234.573,379.777z"/>
	<path display="inline" fill-rule="evenodd" clip-rule="evenodd" fill="#FF1800" d="M336.231,426.276c-22.753,0-44.958,0-67.679,0
		c0-15.561,0-30.88,0-46.691c22.501,0,44.886,0,67.679,0C336.231,395.071,336.231,410.179,336.231,426.276z"/>
</g>
<g display="none">
	<path display="inline" fill-rule="evenodd" clip-rule="evenodd" fill="#006cb5" d="M183.055,407.855c0-9.91,0-19.033,0-29.263
		c-2.482,0-4.872,0-7.261,0c-42.756-0.001-85.514,0.067-128.271-0.032c-20.051-0.048-35.109-10.706-40.165-28.454
		c-1.237-4.342-1.793-9.022-1.799-13.549c-0.1-92.397-0.096-184.794-0.061-277.191c0.01-25.179,16.828-41.961,41.975-41.964
		c136.198-0.016,272.396-0.017,408.593,0.001c25.082,0.002,41.893,16.828,41.904,42.053c0.042,92.188,0.033,184.377,0.005,276.567
		c-0.007,25.911-16.646,42.499-42.767,42.546c-42.339,0.08-84.68,0.023-127.02,0.023c-2.446,0-4.892,0-7.668,0
		c0,10.009,0,19.275,0,29.263c2.47,0,4.701,0,6.934,0c23.151,0,46.302-0.012,69.454,0.007c9.015,0.007,12.107,2.969,12.142,11.892
		c0.071,17.937,0.084,35.876-0.006,53.812c-0.043,8.422-3.381,11.63-11.907,11.632c-96.985,0.021-193.971,0.021-290.957-0.002
		c-8.431-0.002-11.724-3.271-11.76-11.763c-0.078-17.937-0.076-35.874-0.002-53.811c0.037-8.851,3.142-11.754,12.258-11.761
		c22.942-0.016,45.885-0.006,68.828-0.006C177.774,407.855,180.043,407.855,183.055,407.855z M251.771,360.36
		c67.768,0,135.534,0.009,203.301-0.006c16.653-0.003,24.618-7.888,24.62-24.362c0.009-91.956,0.009-183.91,0.001-275.864
		c-0.002-16.64-7.792-24.577-24.398-24.582c-135.743-0.03-271.486-0.032-407.229,0.002c-16.545,0.003-24.289,7.974-24.29,24.67
		c-0.006,91.538,0.261,183.078-0.237,274.613c-0.094,17.174,10.966,25.859,25.559,25.751
		C116.65,360.081,184.211,360.36,251.771,360.36z M113.003,426.381c0,13.596,0,26.828,0,40.418c92.602,0,184.862,0,277.46,0
		c0-13.596,0-26.828,0-40.418C297.861,426.381,205.602,426.381,113.003,426.381z"/>
	<path display="inline" fill-rule="evenodd" clip-rule="evenodd" fill="#FF1800" d="M252.038,53.62
		c61.115,0,122.23-0.005,183.346,0.003c15.3,0.003,23.977,8.654,23.98,24.027c0.021,80.096,0.02,160.193,0.002,240.288
		c-0.004,15.853-8.874,24.587-24.92,24.588c-121.813,0.009-243.625,0.01-365.439,0c-16.287-0.001-24.91-8.738-24.911-25.209
		c-0.007-79.679-0.01-159.358,0.001-239.039c0.002-16.236,8.42-24.656,24.595-24.657C129.808,53.617,190.923,53.62,252.038,53.62z
		 M62.321,169.05c0,2.558,0,4.794,0,7.028c0,46.501-0.003,93.003,0.004,139.504c0.001,8.646,0.019,8.661,8.62,8.661
		c120.527,0.004,241.055,0.004,361.583,0c8.597,0,8.617-0.016,8.618-8.67c0.007-46.502,0.003-93.003,0.003-139.502
		c0-2.234,0-4.469,0-7.021C314.647,169.05,188.815,169.05,62.321,169.05z M62.321,150.58c126.82,0,252.484,0,378.827,0
		c0-2.438,0-4.476,0-6.513c0-21.482,0.013-42.964-0.005-64.446c-0.008-8.063-0.218-8.258-8.572-8.26
		c-42.755-0.009-85.511-0.004-128.266-0.004c-77.375,0-154.751-0.001-232.126,0.001c-9.852,0-9.856,0.005-9.858,10.102
		c-0.002,20.647,0,41.295,0,61.942C62.321,145.654,62.321,147.905,62.321,150.58z"/>
	<path display="inline" fill-rule="evenodd" clip-rule="evenodd" fill="#FF1800" d="M151.756,265.071
		c-18.333,0-36.664,0.018-54.996-0.007c-8.757-0.013-12.005-3.163-12.05-12.053c-0.089-17.498-0.104-34.998,0.015-52.495
		c0.057-8.479,3.307-11.55,11.884-11.557c36.872-0.033,73.745-0.036,110.616,0.001c8.626,0.008,11.917,3.431,11.93,12.208
		c0.027,17.29,0.023,34.58,0.002,51.871c-0.011,9.139-2.82,12.013-11.781,12.024C188.836,265.089,170.296,265.071,151.756,265.071z"
		/>
	<path display="inline" fill-rule="evenodd" clip-rule="evenodd" fill="#FF1800" d="M331.84,247.411
		c-22.73,0-45.462,0.009-68.192-0.012c-2.079-0.003-4.254,0.167-6.215-0.364c-4.454-1.208-7.187-4.062-7.102-8.997
		c0.079-4.632,2.675-7.364,6.888-8.51c1.965-0.534,4.127-0.458,6.199-0.458c45.463-0.023,90.924-0.018,136.386-0.018
		c0.21,0,0.417-0.001,0.626,0c7.997,0.07,12.496,3.315,12.576,9.073c0.08,5.788-4.47,9.266-12.347,9.275
		C377.718,247.43,354.779,247.41,331.84,247.411z"/>
	<path display="inline" fill-rule="evenodd" clip-rule="evenodd" fill="#FF1800" d="M331.608,287.461
		c-23.146,0.001-46.294,0.05-69.439-0.067c-2.614-0.013-6.017-0.136-7.64-1.688c-2.12-2.027-3.964-5.594-3.806-8.378
		c0.141-2.474,2.738-5.462,5.065-6.961c2.034-1.31,5.199-1.143,7.866-1.146c45.251-0.059,90.501-0.043,135.752-0.041
		c1.042,0,2.088-0.041,3.126,0.017c6.403,0.356,10.557,4.055,10.468,9.293c-0.091,5.263-4.274,8.925-10.702,8.943
		C378.735,287.503,355.172,287.459,331.608,287.461z"/>
	<path display="inline" fill-rule="evenodd" clip-rule="evenodd" fill="#FF1800" d="M354.975,188.944
		c15.429,0,30.857-0.028,46.285,0.012c7.368,0.02,11.81,3.556,11.749,9.18c-0.059,5.597-4.475,9.063-11.933,9.073
		c-30.647,0.043-61.296,0.039-91.945,0.002c-7.484-0.008-11.917-3.387-12.075-8.95c-0.166-5.793,4.395-9.296,12.259-9.311
		C324.535,188.924,339.755,188.944,354.975,188.944z"/>
	<path display="inline" fill-rule="evenodd" clip-rule="evenodd" fill="#FF1800" d="M204.251,113.175
		c0.063,13.216-10.433,23.981-23.484,24.088c-12.949,0.106-23.925-10.719-24.035-23.707c-0.111-13.104,10.484-23.792,23.667-23.875
		C193.81,89.598,204.187,99.82,204.251,113.175z"/>
	<path display="inline" fill-rule="evenodd" clip-rule="evenodd" fill="#006cb5" d="M108.761,137.67
		c-13.363,0.059-23.768-10.247-23.811-23.583c-0.042-13.139,10.604-23.964,23.61-24.007c12.847-0.042,23.945,10.951,24.03,23.8
		C132.676,126.852,121.898,137.613,108.761,137.67z"/>
	<path display="inline" fill-rule="evenodd" clip-rule="evenodd" fill="#006cb5" d="M252.426,136.421
		c-13.193,0.11-24.011-10.33-24.226-23.38c-0.21-12.791,10.72-23.993,23.618-24.208c12.978-0.215,23.864,10.481,24.022,23.604
		C276.003,125.769,265.713,136.31,252.426,136.421z"/>
</g>
<g display="none">
	<path display="inline" fill-rule="evenodd" clip-rule="evenodd" fill="#006cb5" d="M304.706,483.693c-1.805,0-3.609,0-5.414,0
		c-88.051-0.001-176.101,0.001-264.151-0.002c-15.693-0.001-22.779-7.287-22.78-23.407c-0.002-89.577-0.003-179.155,0.001-268.732
		c0-15.186,7.044-22.501,21.753-22.52c25.21-0.029,50.42-0.036,75.63,0.003c14.099,0.021,21.417,7.712,21.454,22.412
		c0.018,6.863,0.003,13.727,0.003,21.396c2.697,0,5.027,0,7.359,0c80.079,0,160.158-0.002,240.238,0.002
		c15.497,0.001,22.785,7.529,22.809,23.534c0.006,3.223,0.001,6.446,0.001,10.526c-3.338,0-6.231,0-9.126,0
		c-12.233,0-24.472,0.147-36.7-0.089c-3.669-0.07-5.146,1.104-5.895,4.834c-1.65,8.215-3.986,16.283-5.708,24.484
		c-0.958,4.563-2.738,4.619-6.083,2.347c-8.177-5.556-16.483-10.908-24.981-16.504c-13.895,14.877-27.647,29.603-41.702,44.651
		c4.972,8.086,9.905,16.122,14.852,24.148c4.031,6.541,4.002,6.604-3.103,8.382c-8.97,2.241-17.931,4.517-27.263,6.871
		c0,19.905-0.072,39.594,0.161,59.279c0.016,1.301,2.161,3.323,3.647,3.733c8.026,2.22,16.162,4.02,24.251,5.997
		c5.866,1.436,6.133,2.148,2.811,7.542c-5.061,8.214-10.148,16.409-15.521,25.091c11.422,11.659,22.719,23.189,34.015,34.72
		C305.079,482.826,304.892,483.26,304.706,483.693z"/>
	<path display="inline" fill-rule="evenodd" clip-rule="evenodd" fill="#FF1800" d="M448.099,471.641
		c-7.547-4.846-14.346-9.483-21.438-13.58c-1.847-1.065-4.7-0.935-6.938-0.505c-10.964,2.101-14.809,9.836-16.688,20.573
		c-2.518,14.384-3.233,14.251-17.315,14.249c-5.562,0-11.143-0.302-16.678,0.1c-4.106,0.297-5.462-1.585-6.201-5.304
		c-1.301-6.539-3.12-12.968-4.417-19.506c-0.705-3.561-2.878-4.862-5.679-6.725c-9.074-6.033-16.625-3.921-24.293,2.614
		c-3.534,3.014-7.779,5.139-11.129,7.297c-8.693-8.948-17.179-17.68-26.122-26.886c3.695-6.108,7.89-13.292,12.351-20.296
		c1.796-2.819,1.423-4.989,0.641-8.255c-2.684-11.19-9.727-15.315-20.063-16.093c-4.511-0.339-8.929-1.997-13.66-3.121
		c0-11.387-0.115-22.473,0.147-33.55c0.032-1.379,1.848-3.509,3.222-3.922c7.094-2.135,14.374-3.618,21.451-5.805
		c1.896-0.586,3.655-2.589,4.884-4.376c6.608-9.608,4.663-18.373-2.403-26.901c-2.85-3.44-4.757-7.711-7.311-11.966
		c7.98-8.176,15.784-16.346,23.866-24.21c0.923-0.897,3.761-0.744,5.095,0.04c5.786,3.402,11.423,7.097,16.954,10.932
		c3.014,2.091,5.407,1.723,9.003,0.813c10.836-2.741,13.755-10.353,15.537-20.422c2.571-14.529,3.118-14.426,17.272-14.426
		c5.932,0,11.867,0.118,17.795-0.048c2.891-0.081,4.248,0.828,4.895,3.945c1.469,7.085,3.198,14.133,5.275,21.051
		c0.589,1.961,2.73,3.435,4.198,5.095c0.229,0.258,0.705,0.262,0.998,0.481c8.994,6.747,16.885,4.028,24.691-2.602
		c3.521-2.99,7.757-5.083,10.551-6.868c9.03,8.583,17.607,16.735,26.46,25.148c-4.501,7.454-8.559,14.489-12.942,21.299
		c-2.016,3.132-1.585,5.583-0.815,9.23c2.538,12.045,10.939,14.395,20.764,16.266c12.941,2.465,12.869,2.87,12.868,16.411
		c0,6.509-0.164,13.022,0.067,19.522c0.12,3.336-0.998,4.674-4.17,5.328c-6.157,1.271-12.186,3.198-18.329,4.563
		c-3.721,0.826-6.569,2.251-7.133,6.559c-0.048,0.368-0.19,0.77-0.41,1.06c-6.203,8.171-3.06,15.188,2.134,22.351
		c3.071,4.235,7.679,9.4,7.226,13.649c-0.452,4.235-6.315,7.897-9.891,11.727C457.796,461.531,453.09,466.398,448.099,471.641z
		 M382.279,423.174c24.676-0.071,44.359-20.359,44.567-45.938c0.209-25.535-19.872-46.318-44.766-46.33
		c-24.852-0.013-44.95,20.685-44.907,46.246C337.217,402.681,357.372,423.246,382.279,423.174z"/>
	<path display="inline" fill-rule="evenodd" clip-rule="evenodd" fill="#FF1800" d="M362.744,196.808c-5.46,0-10.2,0-15.541,0
		c0-2.555,0-4.802,0-7.05c0-51.887,0.003-103.776-0.001-155.663c-0.001-8.83-0.02-8.849-8.792-8.849
		c-87.709-0.002-175.418-0.002-263.127,0.001c-8.508,0-8.512,0.011-8.512,8.996c-0.002,37.336,0,74.673,0,112.009
		c0,2.063,0,4.125,0,6.469c-5.278,0-10.02,0-15.301,0c-0.088-1.83-0.254-3.667-0.254-5.502
		c-0.016-38.486,0.341-76.976-0.193-115.453C50.821,17.275,61.474,9.453,72.957,9.479c89.377,0.204,178.755,0.103,268.134,0.125
		c13.988,0.003,21.648,7.962,21.65,22.354c0.009,52.846,0.003,105.692,0.003,158.538
		C362.744,192.382,362.744,194.268,362.744,196.808z"/>
	<path display="inline" fill-rule="evenodd" clip-rule="evenodd" fill="#FF1800" d="M207.056,67.682
		c-34.647,0-69.295,0.015-103.941-0.012c-7.627-0.004-10.821-2.547-10.797-8.332c0.018-4.212,1.932-6.939,5.983-7.701
		c1.984-0.373,4.05-0.384,6.079-0.384c68.553-0.019,137.106-0.018,205.661-0.013c8.779,0,12.344,2.253,12.485,7.84
		c0.143,5.657-4.136,8.595-12.64,8.599C275.609,67.69,241.333,67.683,207.056,67.682z"/>
	<path display="inline" fill-rule="evenodd" clip-rule="evenodd" fill="#FF1800" d="M207.723,94.479
		c35.032,0,70.062,0.027,105.093-0.035c4.539-0.008,8.925,1.228,9.104,6.158c0.11,3.025-2.8,6.39-4.904,9.153
		c-0.735,0.968-3.119,0.808-4.752,0.809c-70.247,0.035-140.495,0.042-210.743,0.01c-6.502-0.003-9.196-2.481-9.189-7.979
		c0.008-5.578,2.955-8.101,9.742-8.105C137.29,94.466,172.506,94.479,207.723,94.479z"/>
	<path display="inline" fill-rule="evenodd" clip-rule="evenodd" fill="#FF1800" d="M258.661,137.834
		c17.965,0.003,35.931,0.029,53.897-0.014c4.83-0.011,8.424,1.518,8.993,7.09c0.566,5.542-2.72,8.996-8.87,9.067
		c-10.186,0.118-20.374,0.035-30.561,0.036c-25.004,0-50.009,0-75.013-0.002c-1.482,0-2.976,0.091-4.443-0.067
		c-4.806-0.519-7.553-3.462-7.415-8.318c0.137-4.831,2.862-7.737,7.845-7.747c12.596-0.025,25.19-0.036,37.784-0.048
		C246.807,137.826,252.733,137.83,258.661,137.834z"/>
</g>
<g display="none">
	<path display="inline" fill-rule="evenodd" clip-rule="evenodd" fill="#006cb5" d="M367.068,232.65c0-64.882,0-128.522,0-192.502
		c-105.855,0-211.333,0-317.109,0c0,140.966,0,281.604,0,422.734c105.427,0,210.882,0,316.929,0
		c0.099-1.376,0.314-3.027,0.319-4.682c0.03-11.194,0.398-22.405-0.107-33.577c-0.389-8.591,1.561-16.037,5.986-23.46
		c8.977-15.052,17.214-30.544,25.776-45.844c0.902-1.611,1.938-3.148,4.029-4.522c0,1.61,0,3.221,0,4.831
		c0,35.513,0.022,71.024-0.01,106.537c-0.02,23.813-13.072,36.825-36.902,36.828c-105.187,0.009-210.372,0.009-315.558-0.002
		c-23.312-0.002-36.41-12.938-36.412-36.012c-0.014-140.312-0.013-280.623,0.002-420.934C14.014,23.14,23.56,9.374,39.646,5.369
		c3.498-0.871,7.256-0.969,10.895-0.971c105.185-0.049,210.372,0.167,315.556-0.203c22.753-0.081,36.598,16.196,36.71,36.014
		c0.243,42.266,0.097,84.534,0.032,126.801c-0.003,1.842-0.362,3.906-1.237,5.49c-10.707,19.401-21.542,38.735-32.364,58.074
		C368.988,231.017,368.48,231.315,367.068,232.65z"/>
	<path display="inline" fill-rule="evenodd" clip-rule="evenodd" fill="#FF1800" d="M306.908,428.29
		c0-14.69-0.04-28.313,0.069-41.934c0.01-1.228,0.864-2.52,1.53-3.663c41.016-70.438,82.051-140.862,123.094-211.283
		c0.471-0.807,1.058-1.548,1.946-2.835c11.768,6.747,23.377,13.402,35.39,20.29c-8.367,14.504-16.51,28.642-24.675,42.768
		c-32.596,56.399-65.148,112.82-97.911,169.122c-2.009,3.455-5.267,6.571-8.643,8.771
		C327.921,415.901,317.776,421.726,306.908,428.29z"/>
	<path display="inline" fill-rule="evenodd" clip-rule="evenodd" fill="#FF1800" d="M336.709,155.895c0,8.551,0,16.583,0,24.89
		c-85.543,0-170.75,0-256.478,0c0-8.18,0-16.334,0-24.89C165.581,155.895,250.931,155.895,336.709,155.895z"/>
	<path display="inline" fill-rule="evenodd" clip-rule="evenodd" fill="#FF1800" d="M80.062,272.021c85.749,0,170.961,0,256.579,0
		c0,8.32,0,16.477,0,24.957c-85.546,0-170.886,0-256.579,0C80.062,288.652,80.062,280.649,80.062,272.021z"/>
	<path display="inline" fill-rule="evenodd" clip-rule="evenodd" fill="#FF1800" d="M80.041,119.891c0-8.235,0-16.244,0-24.565
		c65.472,0,130.615,0,196.208,0c0,8.054,0,16.059,0,24.565C211.185,119.891,145.905,119.891,80.041,119.891z"/>
	<path display="inline" fill-rule="evenodd" clip-rule="evenodd" fill="#FF1800" d="M276.37,211.408c0,8.294,0,16.291,0,24.7
		c-65.47,0-130.731,0-196.327,0c0-8.264,0-16.279,0-24.7C145.49,211.408,210.765,211.408,276.37,211.408z"/>
	<path display="inline" fill-rule="evenodd" clip-rule="evenodd" fill="#FF1800" d="M276.364,327.696c0,8.259,0,16.268,0,24.704
		c-65.426,0-130.703,0-196.318,0c0-8.265,0-16.272,0-24.704C145.494,327.696,210.76,327.696,276.364,327.696z"/>
	<path display="inline" fill-rule="evenodd" clip-rule="evenodd" fill="#006cb5" d="M276.612,418.376c0,3.325,0,6.192,0,9.521
		c-45.482,0-90.885,0-136.811,0c0-2.919,0-6.029,0-9.521C185.226,418.376,230.627,418.376,276.612,418.376z"/>
	<path display="inline" fill-rule="evenodd" clip-rule="evenodd" fill="#006cb5" d="M92.1,382.709
		c3.622,4.225,7.366,8.592,11.751,13.708c4.375-5.166,8.097-9.563,12.236-14.449c4.271,4.855,7.631,8.676,11.723,13.327
		c-3.9,3.345-8.272,7.093-13.935,11.949c5.453,4.388,10.057,8.091,14.708,11.834c-4.606,4.559-8.112,8.025-11.992,11.863
		c-3.863-4.193-7.747-8.406-12.356-13.407c-4.422,5.385-8.165,9.943-12.25,14.915c-4.7-5.129-8.048-8.781-11.819-12.897
		c4.089-3.572,8.536-7.457,13.77-12.029c-5.64-4.898-10.104-8.773-14.494-12.585C83.84,390.688,87.402,387.246,92.1,382.709z"/>
	<path display="inline" fill-rule="evenodd" clip-rule="evenodd" fill="#FF1800" d="M492.279,151.855
		c-4.821,8.367-9.218,15.995-13.812,23.966c-11.942-6.85-23.411-13.428-35.599-20.418c4.586-7.991,9.028-15.732,13.772-23.997
		C468.657,138.302,480.26,144.959,492.279,151.855z"/>
</g>
<g>
	<path fill-rule="evenodd" clip-rule="evenodd" fill="#006cb5" d="M248.46,141.417c19.099-25.459,45.425-30.414,74.192-27.71
		c31.863,2.993,61.4,14.74,91.157,25.526c2.992,1.084,6.315,1.709,9.493,1.744c16.038,0.173,32.079,0.068,48.118,0.083
		c13.646,0.013,23.042,8.968,23.767,22.636c0.074,1.377,0.039,2.76,0.039,4.14c0.003,71.401,0.066,142.804-0.135,214.205
		c-0.015,4.992-1.147,10.365-3.237,14.879c-3.333,7.203-9.599,11.067-17.826,11.104c-1.38,0.007-2.76,0.015-4.14,0.015
		c-146.252,0-292.505,0.001-438.758,0c-17.584-0.001-26.361-8.725-26.362-26.245c-0.007-71.402-0.009-142.804,0.001-214.206
		c0.002-17.338,9.154-26.529,26.349-26.531c15.004-0.002,30.31,1.849,44.929-0.527c14.358-2.334,27.963-9.135,42-13.66
		c22.792-7.351,45.678-14.304,70.045-13.875C212.388,113.424,233.51,120.491,248.46,141.417z M445.374,381.242
		c0.209-1.064,0.443-1.701,0.443-2.339c0.021-69.825,0.044-139.652-0.098-209.478c-0.003-1.526-1.56-3.838-2.972-4.454
		c-19.226-8.387-38.302-17.211-57.92-24.583c-25.895-9.731-52.611-16.421-80.645-14.968c-15.54,0.806-30.124,4.907-40.79,17.052
		c-3.669,4.177-7.669,10.022-7.705,15.132c-0.474,67.063-0.265,134.13-0.226,201.195c0.001,1.646,0,3.293,0,4.454
		c7.31-4.515,13.985-9.747,21.509-13.056c16.934-7.445,34.94-7,52.867-4.784c26.796,3.313,52.352,11.383,77.453,21.021
		C419.923,371.285,432.515,376.238,445.374,381.242z M244.529,364.025c0-3.466,0-5.326,0-7.187
		c0-63.813-0.083-127.627,0.124-191.439c0.021-6.614-1.964-12.045-5.577-17.214c-11.035-15.792-27.216-21.503-45.44-22.753
		c-18.598-1.278-36.681,2.082-54.603,6.769c-27.973,7.315-53.814,19.912-79.991,31.726c-3.578,1.614-5.027,3.38-5.016,7.568
		c0.167,68.125,0.116,136.249,0.129,204.375c0,1.641,0.157,3.28,0.241,4.917c0.756,0,1.129,0.102,1.412-0.016
		c1.588-0.659,3.157-1.364,4.727-2.066c30.708-13.735,62.199-25.108,95.392-31.212c15.642-2.875,31.403-4.52,47.308-2.493
		C218.432,346.938,232.201,352.268,244.529,364.025z M487.759,282.41c0.036-10.312-8.25-18.615-18.659-18.703
		c-10.458-0.088-18.734,7.943-18.94,18.378c-0.204,10.362,8.54,19.241,18.873,19.161
		C479.168,301.168,487.724,292.562,487.759,282.41z M31.884,273.793c0-7.226,0.114-14.453-0.104-21.671
		c-0.04-1.322-1.43-2.604-2.197-3.905c-0.935,1.191-2.668,2.372-2.684,3.574c-0.191,14.446-0.194,28.896-0.024,43.343
		c0.016,1.357,1.543,2.697,2.369,4.046c0.88-1.41,2.468-2.793,2.522-4.233C32.032,287.903,31.887,280.846,31.884,273.793z
		 M25.136,312.56c2.803,1.957,4.429,3.95,6.054,3.948c1.25-0.001,3.648-2.688,3.465-3.856c-0.239-1.534-2.364-3.543-3.962-3.845
		C29.462,308.574,27.793,310.66,25.136,312.56z"/>
	<path fill-rule="evenodd" clip-rule="evenodd" fill="#FF1800" d="M411.584,272.663c-2.126,3.138-3.442,5.079-4.026,5.94
		c-15.135-5.874-29.366-12.515-44.259-16.926c-25.205-7.467-50.393-7.135-74.251,5.592c-6.192,3.303-11.826,7.653-18.269,11.886
		c-1.325-1.423-3.013-3.235-4.987-5.354c11.818-10.934,25.295-18.175,40.583-21.968c26.311-6.527,51.668-2.046,76.353,7.53
		C392.298,263.076,401.424,267.938,411.584,272.663z"/>
	<path fill-rule="evenodd" clip-rule="evenodd" fill="#FF1800" d="M271.072,215.491c-1.917-2.142-3.488-3.896-5.265-5.881
		c15.052-13.612,32.254-21.698,51.95-23.99c33.077-3.847,62.888,6.268,91.211,22.217c0.57,0.32,1.03,0.837,1.922,1.578
		c-1.345,2.059-2.622,4.017-4.047,6.199c-6.131-3.096-11.98-6.294-18.026-9.059c-16.572-7.578-33.871-12.629-52.151-13.53
		c-22.859-1.126-43.633,4.727-61.59,19.365C273.878,213.368,272.63,214.287,271.072,215.491z"/>
	<path fill-rule="evenodd" clip-rule="evenodd" fill="#FF1800" d="M271.084,311.658c-1.836-2.029-3.425-3.787-5.284-5.843
		c12.473-11.376,26.552-18.989,42.696-22.386c37.146-7.816,70.251,3.717,102.713,21.643c-1.7,2.59-3.056,4.656-4.544,6.924
		c-14.976-8.78-30.387-15.443-46.903-19.371c-28.949-6.886-56.423-4.661-81.313,13.279
		C276.076,307.614,273.832,309.503,271.084,311.658z"/>
	<path fill-rule="evenodd" clip-rule="evenodd" fill="#FF1800" d="M271.079,247.427c-1.63-1.733-3.261-3.467-5.261-5.595
		c7.648-7.381,16.258-12.83,25.721-16.964c24.901-10.88,50.455-10.333,75.783-2.583c13.393,4.098,26.053,10.606,39.011,16.101
		c1.526,0.647,2.852,1.767,4.685,2.93c-1.493,2.264-2.784,4.22-3.805,5.769c-11.628-5.019-22.706-10.576-34.307-14.646
		c-23.58-8.272-47.794-11.321-71.801-2.309c-10.638,3.993-20.34,10.475-30.467,15.826
		C270.785,246.447,270.932,246.937,271.079,247.427z"/>
	<path fill-rule="evenodd" clip-rule="evenodd" fill="#FF1800" d="M90.884,210.5c-1.28-1.905-2.595-3.862-4.12-6.132
		c15.31-9.539,31.429-16.252,48.548-20.422c24.503-5.971,48.873-6.337,72.182,4.708c8.605,4.078,16.435,9.79,25.325,15.186
		c-2.639,2.929-4.296,4.769-6.151,6.828c-10.299-8.882-21.453-15.562-34.283-19.056c-25.877-7.045-50.862-2.956-75.215,6.705
		C108.416,201.789,100.041,206.221,90.884,210.5z"/>
	<path fill-rule="evenodd" clip-rule="evenodd" fill="#FF1800" d="M90.963,274.703c-1.37-2.003-2.621-3.83-4.444-6.496
		c6.611-3.395,12.821-6.933,19.31-9.851c22.44-10.086,45.765-15.983,70.612-13.851c21.102,1.812,39.462,9.921,55.586,24.34
		c-1.784,1.995-3.359,3.756-5.015,5.607C181.687,238.697,136.578,251.01,90.963,274.703z"/>
	<path fill-rule="evenodd" clip-rule="evenodd" fill="#FF1800" d="M231.967,300.891c-1.426,1.639-2.411,2.821-3.453,3.949
		c-0.562,0.606-1.223,1.119-2.037,1.853c-11.069-9.609-23.407-16.568-37.611-19.852c-24.213-5.598-47.563-1.807-70.262,7.115
		c-9.243,3.633-18.119,8.196-27.712,12.59c-1.082-1.531-2.43-3.441-4.417-6.253c6.462-3.313,12.521-6.718,18.82-9.593
		c22.719-10.367,46.361-16.366,71.57-14.098C197.766,278.483,215.993,286.529,231.967,300.891z"/>
	<path fill-rule="evenodd" clip-rule="evenodd" fill="#FF1800" d="M231.978,236.856c-1.812,2.007-3.397,3.765-4.891,5.42
		c-6.233-4.103-11.967-8.538-18.27-11.909c-23.306-12.464-48.046-13.007-72.728-5.967c-14.085,4.017-27.368,10.854-40.999,16.453
		c-1.247,0.512-2.398,1.252-3.913,2.056c-1.459-2.12-2.801-4.069-4.892-7.105c9.981-4.638,19.378-9.582,29.199-13.453
		c23.984-9.455,48.718-13.473,74.309-7.793C205.703,218.088,219.658,225.521,231.978,236.856z"/>
	<path fill-rule="evenodd" clip-rule="evenodd" fill="#FF1800" d="M479.031,283.204c0.028,12.416,0.581,11.067-11.089,11.131
		c-1.544,0.008-3.089-0.041-4.631-0.012c-2.979,0.055-4.435-1.367-4.419-4.358c0.022-4.287,0.03-8.575-0.01-12.862
		c-0.028-3.146,1.289-4.851,4.616-4.688c1.541,0.076,3.088-0.003,4.631,0.011C479.11,272.515,479.133,270.778,479.031,283.204z
		 M475.821,290.843c0-2.329-0.004-4.03,0.001-5.731c0.031-10.449-0.225-10.738-10.563-9.461c-1.137,0.14-2.956,1.49-3.024,2.389
		c-0.324,4.195-0.144,8.429-0.144,12.804C466.958,290.843,471.012,290.843,475.821,290.843z"/>
</g>
</svg>
